<svg width="18" height="19" viewBox="0 0 18 19" fill="none" xmlns="http://www.w3.org/2000/svg">
<g clip-path="url(#clip0_29_9815)">
<path d="M9 18.126C13.9706 18.126 18 14.0965 18 9.12598C18 4.15541 13.9706 0.125977 9 0.125977C4.02944 0.125977 0 4.15541 0 9.12598C0 14.0965 4.02944 18.126 9 18.126Z" fill="#172852"/>
<path d="M7.24848 4.14808C8.30238 3.75388 9.48858 3.75298 10.5623 4.07698C11.96 4.51078 13.1399 5.56558 13.7564 6.88948C13.9265 7.26658 14.0894 7.65988 14.1056 8.07928C13.3199 7.62388 12.4586 7.32868 11.5955 7.05958C10.2149 6.56188 8.76948 6.21628 7.46268 5.53228C7.15848 5.35048 6.77058 5.16418 6.68778 4.78528C6.65448 4.45768 7.00098 4.27498 7.24848 4.14808Z" fill="#FFD83D"/>
<path d="M4.06774 7.33409C4.37284 6.50609 4.87324 5.73749 5.55274 5.16779C5.72554 6.58889 6.33034 7.96228 7.32934 8.99548C8.52724 10.2402 10.2336 11.0043 11.9697 10.9755C12.6591 10.9971 13.3332 10.8378 14.0055 10.7091C13.344 13.0995 10.7241 14.6862 8.29684 14.3046C6.83164 14.1174 5.47894 13.2498 4.66264 12.0249C3.74194 10.6713 3.50974 8.87398 4.06774 7.33409Z" fill="#FFD83D"/>
<path d="M11.5957 7.05957C12.4588 7.32867 13.3201 7.62387 14.1058 8.07927L14.1589 8.10717C14.2318 8.65527 14.2849 9.21417 14.1877 9.76317C13.7926 9.59577 13.4722 9.30147 13.1374 9.04137C12.493 8.50497 11.8351 7.89117 11.5957 7.05957Z" fill="#FF6F03"/>
</g>
<defs>
<clipPath id="clip0_29_9815">
<rect width="18" height="18" fill="white" transform="translate(0 0.125977)"/>
</clipPath>
</defs>
</svg>
