<svg width="32" height="32" viewBox="0 0 32 32" fill="none" xmlns="http://www.w3.org/2000/svg">
<rect width="32.0024" height="32" rx="4" fill="#473E3B"/>
<path d="M16.0012 6C10.4863 6 6 10.4859 6 15.9988C6 21.5161 10.4859 26 16.0012 26C21.5165 26 26.0024 21.5161 26.0024 15.9988C26.0024 10.4859 21.5165 6 16.0012 6ZM16.0012 24.5069C11.3102 24.5069 7.49314 20.692 7.49314 15.9988C7.49314 11.3078 11.3103 7.49314 16.0012 7.49314C20.6942 7.49314 24.5069 11.3103 24.5069 15.9988C24.5069 20.6918 20.6942 24.5069 16.0012 24.5069Z" fill="#FF8F67"/>
<path d="M16.5011 15.2762C15.1453 14.7154 14.5688 14.3101 14.5688 13.5016C14.5688 12.88 15.0215 12.1617 16.2194 12.1617C17.2171 12.1617 17.8544 12.5039 18.181 12.6909L18.5705 11.664C18.1202 11.3982 17.4805 11.1483 16.5482 11.1191L16.5484 9.60791H15.5799V11.1821C14.1476 11.4141 13.2312 12.3959 13.2312 13.6885C13.2312 15.0442 14.213 15.7604 15.8007 16.3819C16.9515 16.8504 17.5594 17.3774 17.5594 18.2354C17.5594 19.1226 16.8116 19.7623 15.7059 19.7623C14.8344 19.7623 14.0237 19.4651 13.4629 19.0912L13.0894 20.1338C13.6343 20.5256 14.5689 20.8049 15.4719 20.8229V22.3925H16.4537L16.4538 20.7733C18.055 20.5098 18.913 19.3545 18.913 18.1272C18.9128 16.7399 18.1045 15.9316 16.5011 15.2762H16.5011Z" fill="#FF8F67"/>
</svg>
