<svg width="32" height="32" viewBox="0 0 32 32" fill="none" xmlns="http://www.w3.org/2000/svg">
<rect width="32" height="32" rx="4" fill="#444F5F"/>
<path d="M23.7229 11C22.5947 11 21.6717 11.862 21.5076 12.9827H18.1229V11H13.6102V12.9827H10.4718C10.2872 11.862 9.36419 11 8.25644 11C7.00518 11 6 12.0561 6 13.3707C6 14.6854 7.00515 15.7415 8.25644 15.7415C9.20009 15.7415 10.0001 15.1381 10.3487 14.2761H11.6411C9.44616 15.6552 8 18.4998 8.76918 21.9998H10C9.5 18.4998 11.0463 15.5903 13.6103 14.7498V15.7413H18.1231V14.7498C20.6871 15.5903 23 18.4998 22 21.9998H23.2308C24 17.9998 22.2871 15.655 20.1128 14.2757H21.6513C21.9999 15.1377 22.7999 15.7411 23.7436 15.7411C24.9948 15.7411 26 14.685 26 13.3704C25.9999 12.0559 24.9742 11 23.7229 11Z" fill="#5D95E8"/>
</svg>
