<svg width="14" height="15" viewBox="0 0 14 15" fill="none" xmlns="http://www.w3.org/2000/svg">
<path d="M5.65175 0.967328C6.31004 0.544745 7.15428 0.544745 7.81258 0.967328L8.26729 1.25923C8.55672 1.44502 8.88916 1.55303 9.23251 1.57284L9.77195 1.60397C10.5529 1.64903 11.2359 2.14526 11.5201 2.87407L11.7164 3.3775C11.8413 3.69792 12.0468 3.98071 12.3129 4.19856L12.7311 4.54082C13.3364 5.03631 13.5973 5.83923 13.3988 6.59589L13.2617 7.11855C13.1744 7.45122 13.1744 7.80077 13.2617 8.13344L13.3988 8.6561C13.5973 9.41276 13.3364 10.2157 12.7311 10.7112L12.3129 11.0534C12.0468 11.2713 11.8413 11.5541 11.7164 11.8745L11.5201 12.3779C11.2359 13.1067 10.5529 13.603 9.77195 13.648L9.23251 13.6791C8.88916 13.699 8.55672 13.807 8.26729 13.9928L7.81258 14.2847C7.15428 14.7072 6.31004 14.7072 5.65175 14.2847L5.19703 13.9928C4.90761 13.807 4.57517 13.699 4.23182 13.6791L3.69237 13.648C2.91141 13.603 2.2284 13.1067 1.94422 12.3779L1.74792 11.8745C1.62298 11.5541 1.41752 11.2713 1.15139 11.0534L0.733258 10.7112C0.127934 10.2157 -0.132951 9.41276 0.0655251 8.6561L0.202622 8.13344C0.289882 7.80077 0.289882 7.45122 0.202622 7.11855L0.0655247 6.59589C-0.132951 5.83923 0.127934 5.03631 0.733259 4.54082L1.15139 4.19856C1.41752 3.98071 1.62298 3.69792 1.74792 3.3775L1.94422 2.87407C2.2284 2.14526 2.91141 1.64903 3.69237 1.60397L4.23182 1.57284C4.57517 1.55303 4.90761 1.44502 5.19703 1.25923L5.65175 0.967328Z" fill="#9B7DF0"/>
<path fill-rule="evenodd" clip-rule="evenodd" d="M5.95356 10.2566C5.79267 10.2566 5.6301 10.1951 5.50711 10.0713L3.50737 8.07238C3.26056 7.82557 3.26056 7.4263 3.50737 7.17949C3.75418 6.93268 4.15346 6.93268 4.40026 7.17949L5.95356 8.7311L9.50491 5.18059C9.75172 4.93378 10.151 4.93378 10.3978 5.18059C10.6446 5.4274 10.6446 5.82667 10.3978 6.07348L6.40001 10.0713C6.27702 10.1951 6.11529 10.2566 5.95356 10.2566Z" fill="white"/>
</svg>
